<svg id="Layer_1" data-name="Layer 1" xmlns="http://www.w3.org/2000/svg" viewBox="0 0 165.1 129.99"><defs><style>.cls-1{fill:blue;}</style></defs><path class="cls-1" d="M391.59,337.45c-11.92,1.31-13.55,2.13-15.84,15.19l-11.92,62.54c-4.25,23.19-11.76,35.28-26.29,41.81a61.76,61.76,0,0,1-18.78,4.57L317.45,455c15.35-3.59,19.6-10.45,25.48-41.32l11.59-61.07c2.45-12.74,1-14-12.41-15.19l1.47-5.87H392.9Z" transform="translate(-317.45 -331.58)"/><path class="cls-1" d="M445.48,331.58c23.84,0,37.07,11.1,37.07,29.06,0,22.05-18,35.44-41.32,35.44a31.13,31.13,0,0,1-5.22-.65L425.39,393l-4.57,24.65C418.7,429.06,419,430.7,434.05,432l-1.47,5.72H382l1.46-5.72c11.76-1,13.72-2.28,16.33-15.18L412,353.62c2.62-13.72,2.12-15.19-11.59-16.17l1.47-5.87Zm-18.78,55a27.65,27.65,0,0,0,9.47,1.63c14.53,0,23.84-11.92,23.84-29.88,0-14.54-6.37-19.93-15.67-19.93-6.37,0-8.82,1-10.46,10.29Z" transform="translate(-317.45 -331.58)"/></svg>